<svg aria-hidden="true" style="position: absolute; width: 0; height: 0; overflow: hidden;" version="1.1" xmlns="http://www.w3.org/2000/svg" xmlns:xlink="http://www.w3.org/1999/xlink">
<defs>
<symbol id="icon-circular-play-button" viewBox="0 0 32 32">
<path fill="#64be97" style="fill: var(--color1, #64be97)" d="M16 5.333c4.909 0 8.889 3.98 8.889 8.889s-3.98 8.889-8.889 8.889c-4.909 0-8.889-3.98-8.889-8.889s3.98-8.889 8.889-8.889z"></path>
<path fill="#fff" style="fill: var(--color2, #fff)" d="M13.778 10.222l6.222 4-6.222 4v-8z"></path>
<path fill="none" stroke="#fff" style="stroke: var(--color2, #fff)" stroke-linejoin="miter" stroke-linecap="butt" stroke-miterlimit="4" stroke-width="0.8889" d="M16 5.778c4.664 0 8.444 3.781 8.444 8.444s-3.781 8.444-8.444 8.444c-4.664 0-8.444-3.781-8.444-8.444s3.781-8.444 8.444-8.444z"></path>
</symbol>
<symbol id="icon-hamburger-menu" viewBox="0 0 32 32">
<path fill="#1b63f0" style="fill: var(--color3, #1b63f0)" d="M2.667 8c0-0.736 0.597-1.333 1.333-1.333h24c0.736 0 1.333 0.597 1.333 1.333s-0.597 1.333-1.333 1.333h-24c-0.736 0-1.333-0.597-1.333-1.333zM2.667 16c0-0.736 0.597-1.333 1.333-1.333h24c0.736 0 1.333 0.597 1.333 1.333s-0.597 1.333-1.333 1.333h-24c-0.736 0-1.333-0.597-1.333-1.333zM4 22.667c-0.736 0-1.333 0.597-1.333 1.333s0.597 1.333 1.333 1.333h24c0.736 0 1.333-0.597 1.333-1.333s-0.597-1.333-1.333-1.333h-24z"></path>
</symbol>
<symbol id="icon-slide-left" viewBox="0 0 29 32">
<path fill="#fff" style="fill: var(--color2, #fff)" d="M13.111 5.333c4.909 0 8.889 3.98 8.889 8.889s-3.98 8.889-8.889 8.889c-4.909 0-8.889-3.98-8.889-8.889s3.98-8.889 8.889-8.889z"></path>
<path fill="none" stroke="#64be97" style="stroke: var(--color1, #64be97)" stroke-linejoin="round" stroke-linecap="round" stroke-miterlimit="4" stroke-width="0.8889" d="M14.444 16.889l-2.667-2.667 2.667-2.667"></path>
</symbol>
<symbol id="icon-slide-right" viewBox="0 0 29 32">
<path fill="#fff" style="fill: var(--color2, #fff)" d="M16.222 5.333c4.909 0 8.889 3.98 8.889 8.889s-3.98 8.889-8.889 8.889c-4.909 0-8.889-3.98-8.889-8.889s3.98-8.889 8.889-8.889z"></path>
<path fill="none" stroke="#64be97" style="stroke: var(--color1, #64be97)" stroke-linejoin="round" stroke-linecap="round" stroke-miterlimit="4" stroke-width="0.8889" d="M14.889 16.889l2.667-2.667-2.667-2.667"></path>
</symbol>
<symbol id="icon-chevron-left" viewBox="0 0 33 32">
<path fill="none" stroke="#64be97" style="stroke: var(--color10, #64be97)" stroke-linejoin="round" stroke-linecap="round" stroke-miterlimit="4" stroke-width="2.6667" d="M20.667 24l-8-8 8-8"></path>
</symbol>
<symbol id="icon-chevron-right" viewBox="0 0 33 32">
<path fill="none" stroke="#64be97" style="stroke: var(--color10, #64be97)" stroke-linejoin="round" stroke-linecap="round" stroke-miterlimit="4" stroke-width="2.6667" d="M12.667 24l8-8-8-8"></path>
</symbol>
</defs>
</svg>
