<svg aria-hidden="true" style="position: absolute; width: 0; height: 0; overflow: hidden;" version="1.1" xmlns="http://www.w3.org/2000/svg" xmlns:xlink="http://www.w3.org/1999/xlink">
<defs>
<symbol id="icon-hamburger-menu" viewBox="0 0 32 32">
<path fill="#1b63f0" style="fill: var(--color1, #1b63f0)" d="M2.667 8c0-0.736 0.597-1.333 1.333-1.333v0h24c0.736 0 1.333 0.597 1.333 1.333s-0.597 1.333-1.333 1.333v0h-24c-0.736 0-1.333-0.597-1.333-1.333v0zM2.667 16c0-0.736 0.597-1.333 1.333-1.333v0h24c0.736 0 1.333 0.597 1.333 1.333s-0.597 1.333-1.333 1.333v0h-24c-0.736 0-1.333-0.597-1.333-1.333v0zM4 22.667c-0.736 0-1.333 0.597-1.333 1.333s0.597 1.333 1.333 1.333v0h24c0.736 0 1.333-0.597 1.333-1.333s-0.597-1.333-1.333-1.333v0h-24z"></path>
</symbol>
<symbol id="icon-commas" viewBox="0 0 40 32">
<path fill="#3f4c9a" style="fill: var(--color2, #3f4c9a)" d="M13.006 14.772c1.548 0.681 2.756 1.703 3.623 3.066s1.301 2.973 1.301 4.831c0 2.663-0.836 4.831-2.508 6.503-1.672 1.61-3.809 2.415-6.41 2.415s-4.769-0.836-6.503-2.508c-1.672-1.672-2.508-3.809-2.508-6.41 0-1.239 0.155-2.477 0.465-3.716s0.991-3.097 2.044-5.574l5.388-13.378h9.197l-4.088 14.772zM34.932 14.772c1.548 0.681 2.756 1.703 3.623 3.066s1.301 2.973 1.301 4.831c0 2.663-0.836 4.831-2.508 6.503-1.672 1.61-3.809 2.415-6.41 2.415s-4.769-0.836-6.503-2.508c-1.672-1.672-2.508-3.809-2.508-6.41 0-1.239 0.155-2.477 0.465-3.716s0.991-3.097 2.044-5.574l5.388-13.378h9.197l-4.088 14.772z"></path>
</symbol>
<symbol id="icon-play" viewBox="0 0 32 32">
<path fill="#64be97" style="fill: var(--color3, #64be97)" d="M16 0c8.837 0 16 7.163 16 16s-7.163 16-16 16c-8.837 0-16-7.163-16-16s7.163-16 16-16z"></path>
<path fill="#fff" style="fill: var(--color4, #fff)" d="M12 8.8l11.2 7.2-11.2 7.2v-14.4z"></path>
<path fill="none" stroke="#fff" style="stroke: var(--color5, #fff)" stroke-linejoin="miter" stroke-linecap="butt" stroke-miterlimit="4" stroke-width="1.6" d="M16 0.8c8.395 0 15.2 6.805 15.2 15.2s-6.805 15.2-15.2 15.2c-8.395 0-15.2-6.805-15.2-15.2s6.805-15.2 15.2-15.2z"></path>
</symbol>
<symbol id="icon-left" viewBox="0 0 32 32">
<path fill="#fff" style="fill: var(--color4, #fff)" d="M16 0c8.837 0 16 7.163 16 16s-7.163 16-16 16c-8.837 0-16-7.163-16-16s7.163-16 16-16z"></path>
<path fill="none" stroke="#64be97" style="stroke: var(--color3, #64be97)" stroke-linejoin="round" stroke-linecap="round" stroke-miterlimit="4" stroke-width="1.6" d="M18.4 20.8l-4.8-4.8 4.8-4.8"></path>
</symbol>
<symbol id="icon-right" viewBox="0 0 32 32">
<path fill="#fff" style="fill: var(--color4, #fff)" d="M16 0c8.837 0 16 7.163 16 16s-7.163 16-16 16c-8.837 0-16-7.163-16-16s7.163-16 16-16z"></path>
<path fill="none" stroke="#64be97" style="stroke: var(--color3, #64be97)" stroke-linejoin="round" stroke-linecap="round" stroke-miterlimit="4" stroke-width="1.6" d="M13.6 20.8l4.8-4.8-4.8-4.8"></path>
</symbol>
<symbol id="icon-facebook" viewBox="0 0 32 32">
<path d="M19.173 1.392c-3.254 0.348-5.9 2.608-6.812 5.621l-0.015 0.056c-0.271 0.935-0.3 1.223-0.331 3.131l-0.028 1.8h-1.451c-1.651 0-1.876 0.036-2.189 0.348-0.343 0.344-0.348 0.396-0.348 3.652s0.005 3.308 0.348 3.652c0.313 0.312 0.537 0.348 2.195 0.348h1.457v4.791c0 5.327-0.009 5.169 0.348 5.528 0.344 0.343 0.396 0.348 3.652 0.348s3.308-0.005 3.652-0.348c0.357-0.359 0.348-0.201 0.348-5.525v-4.787l1.535-0.017c1.527-0.016 1.537-0.017 1.8-0.152 0.465-0.24 0.484-0.293 1.284-3.487 0.485-1.941 0.715-2.955 0.715-3.153 0-0.511-0.207-0.811-0.72-1.048-0.263-0.121-0.3-0.123-2.44-0.139l-2.173-0.015v-2.663h2.124c2.387 0 2.529-0.017 2.861-0.348 0.343-0.344 0.348-0.396 0.348-3.652s-0.005-3.308-0.348-3.652c-0.337-0.336-0.453-0.349-3.061-0.341-1.279 0.004-2.516 0.027-2.751 0.052zM22.667 5.333v1.333l-1.453 0.001c-1.604 0-1.975 0.047-2.455 0.303-0.357 0.191-0.931 0.764-1.121 1.121-0.276 0.517-0.303 0.791-0.303 3.245-0.001 2.519 0.013 2.648 0.347 2.981 0.328 0.327 0.492 0.348 2.681 0.348 1.531 0 1.937 0.015 1.917 0.067-0.013 0.037-0.165 0.636-0.337 1.333l-0.313 1.267h-1.605c-1.819 0-2.024 0.031-2.343 0.348-0.357 0.359-0.348 0.201-0.348 5.528v4.791h-2.667v-4.791c0-5.327 0.009-5.169-0.348-5.528-0.313-0.312-0.537-0.348-2.195-0.348h-1.457v-2.667h1.459c1.544 0 1.781-0.029 2.107-0.26 0.116-0.101 0.211-0.223 0.281-0.36l0.003-0.007c0.124-0.252 0.124-0.264 0.156-2.92 0.029-2.513 0.037-2.691 0.145-3.073 0.475-1.683 1.556-2.953 3.056-3.596 0.405-0.173 1.051-0.363 1.407-0.412 0.088-0.013 0.887-0.027 1.773-0.031l1.613-0.008v1.333z"></path>
</symbol>
<symbol id="icon-instagram" viewBox="0 0 32 32">
<path d="M8.773 1.367c-0.917 0.111-1.204 0.164-1.733 0.323-2.51 0.756-4.46 2.66-5.267 5.086l-0.016 0.056c-0.423 1.283-0.397 0.716-0.397 9.089 0 8.207-0.011 7.905 0.331 9.040 0.777 2.581 2.769 4.572 5.293 5.335l0.056 0.015c1.135 0.341 0.841 0.331 8.96 0.331s7.825 0.011 8.96-0.331c2.581-0.777 4.572-2.769 5.335-5.293l0.015-0.056c0.341-1.135 0.331-0.841 0.331-8.96s0.011-7.825-0.331-8.96c-0.755-2.51-2.658-4.46-5.083-5.267l-0.056-0.016c-1.273-0.419-0.695-0.392-8.904-0.401-4.033-0.005-7.405 0-7.493 0.011zM23.956 4.148c1.023 0.296 1.779 0.732 2.471 1.425 0.693 0.692 1.129 1.448 1.424 2.471l0.119 0.409 0.017 7.345c0.016 7.277 0.015 7.351-0.096 7.893-0.212 1.080-0.732 2.014-1.463 2.734l-0.001 0.001c-0.703 0.704-1.476 1.145-2.499 1.427l-0.435 0.12h-14.987l-0.435-0.12c-1.023-0.281-1.796-0.723-2.499-1.427-0.704-0.703-1.145-1.476-1.427-2.499l-0.12-0.435v-14.987l0.12-0.436c0.284-1.029 0.717-1.789 1.427-2.497 0.505-0.507 1.019-0.86 1.623-1.119 0.413-0.176 1.053-0.365 1.417-0.417 0.088-0.012 3.484-0.019 7.547-0.015l7.387 0.008 0.409 0.117zM22.609 7.507c-0.199 0.082-0.354 0.237-0.434 0.431l-0.002 0.005c-0.124 0.245-0.147 0.356-0.147 0.724s0.023 0.479 0.147 0.724c0.082 0.199 0.237 0.354 0.431 0.434l0.005 0.002c0.241 0.123 0.359 0.147 0.699 0.147 0.944 0 1.343-0.388 1.343-1.307s-0.399-1.307-1.343-1.307c-0.34 0-0.457 0.024-0.699 0.147zM15.413 9.309c-0.073 0.013-0.301 0.049-0.507 0.081-0.824 0.129-1.836 0.54-2.617 1.064-0.533 0.356-1.364 1.184-1.713 1.705-0.807 1.204-1.159 2.349-1.157 3.76 0.001 0.879 0.052 1.227 0.296 2.027 0.629 2.063 2.375 3.784 4.431 4.371 1.66 0.472 3.209 0.352 4.765-0.369 0.715-0.335 1.324-0.772 1.84-1.301l0.001-0.001c0.71-0.703 1.262-1.564 1.599-2.527l0.014-0.047c0.268-0.779 0.321-1.128 0.321-2.099 0-0.789-0.017-0.983-0.139-1.5-0.296-1.263-0.801-2.2-1.692-3.132-1.239-1.296-2.785-1.981-4.589-2.033-0.123-0.006-0.267-0.009-0.412-0.009-0.155 0-0.309 0.004-0.462 0.012l0.022-0.001zM17.2 12.107c1.3 0.408 2.302 1.416 2.694 2.691l0.008 0.029c0.107 0.341 0.125 0.509 0.123 1.147-0.001 0.675-0.016 0.788-0.149 1.173-0.384 1.105-1.045 1.873-2.047 2.371-0.52 0.267-1.134 0.424-1.784 0.424-0.48 0-0.941-0.085-1.367-0.242l0.028 0.009c-0.52-0.18-0.904-0.423-1.377-0.871-0.656-0.621-1.013-1.252-1.188-2.103-0.44-2.129 0.929-4.22 3.088-4.713 0.476-0.109 1.497-0.065 1.973 0.085z"></path>
</symbol>
<symbol id="icon-twitter" viewBox="0 0 32 32">
<path d="M20.853 2.741c-2.175 0.387-3.893 1.512-5.032 3.295-0.642 0.988-1.054 2.179-1.134 3.461l-0.001 0.021-0.035 0.503-0.273-0.028c-1.481-0.154-2.837-0.534-4.086-1.107l0.081 0.033c-2.111-0.961-3.737-2.277-5.157-4.172-0.433-0.579-0.747-0.8-1.129-0.8-0.527 0.001-1.101 0.392-1.324 0.9-0.371 0.844-0.824 2.495-1.025 3.732-0.647 3.96 0.051 7.509 2.025 10.301 1.017 1.415 2.253 2.6 3.673 3.528l0.052 0.032 0.416 0.265-0.579 0.24c-0.829 0.345-1.841 0.648-2.72 0.813-0.873 0.165-1.256 0.2-2.503 0.233l-1.284 0.035-0.26 0.16c-0.379 0.235-0.532 0.556-0.532 1.119 0 0.372 0.020 0.461 0.148 0.68 0.18 0.305 0.393 0.456 1.292 0.911 2.080 1.098 4.505 1.874 7.072 2.189l0.102 0.010c0.935 0.117 3.003 0.163 3.893 0.084 3.376-0.297 6.139-1.253 8.853-3.064 2.317-1.545 4.225-3.667 5.589-6.216 1.512-2.827 2.267-5.892 2.329-9.463l0.020-1.111 0.331-0.399c0.989-1.207 1.75-2.642 2.192-4.211l0.020-0.082c0.304-1.079 0.076-1.629-0.776-1.883-0.557-0.165-0.744-0.116-1.572 0.416-0.651 0.417-1.92 1.072-2.385 1.231l-0.3 0.103-0.231-0.188c-0.92-0.747-1.961-1.24-3.192-1.511-0.543-0.12-2.027-0.155-2.559-0.060zM23.147 5.467c0.417 0.111 1.128 0.433 1.463 0.664 0.133 0.092 0.457 0.371 0.717 0.619 0.261 0.248 0.56 0.487 0.665 0.531 0.291 0.121 0.675 0.097 1.219-0.077 0.271-0.088 0.5-0.149 0.511-0.139 0.023 0.021-0.227 0.315-0.684 0.803-0.173 0.185-0.34 0.429-0.397 0.58-0.091 0.235-0.093 0.308-0.036 0.773 0.116 0.936 0.041 2.608-0.176 3.98-0.588 3.7-2.151 6.804-4.608 9.16-1.127 1.080-2.16 1.803-3.633 2.54-1.631 0.815-2.985 1.24-4.907 1.536-0.872 0.135-3.581 0.136-4.516 0.003-0.817-0.116-2.004-0.351-2.060-0.407-0.024-0.024 0.108-0.085 0.293-0.137 1.38-0.384 4.048-1.728 4.637-2.336 0.296-0.305 0.472-0.921 0.371-1.297-0.107-0.395-0.308-0.56-1.244-1.023-1.021-0.505-1.7-0.907-2.361-1.397-2.527-1.872-3.867-4.207-4.191-7.303-0.116-1.112-0.007-2.939 0.245-4.093l0.084-0.38 0.357 0.344c2.228 2.151 5.296 3.648 8.464 4.131 0.852 0.129 2.773 0.196 3.099 0.107 0.315-0.076 0.57-0.283 0.709-0.559l0.003-0.006c0.132-0.257 0.137-0.304 0.169-1.6 0.024-1.004 0.055-1.413 0.121-1.652 0.507-1.8 1.851-3.064 3.663-3.441 0.371-0.076 1.623-0.028 2.023 0.079z"></path>
</symbol>
<symbol id="icon-youtube" viewBox="0 0 32 32">
<path d="M12.88 4.032c-5.245 0.131-7.988 0.356-9.004 0.739-1.561 0.589-2.663 1.735-3.132 3.256-0.193 0.623-0.5 2.871-0.645 4.72-0.085 1.077-0.085 4.848 0 5.92 0.153 1.927 0.468 4.179 0.659 4.72 0.64 1.808 2.085 3.007 4.043 3.356 0.917 0.164 2.492 0.295 4.987 0.416 1.879 0.091 10.548 0.091 12.427 0 3.331-0.161 4.919-0.328 5.787-0.608 1.537-0.519 2.724-1.707 3.232-3.208l0.011-0.036c0.204-0.633 0.521-2.969 0.66-4.853 0.083-1.137 0.083-4.573-0.001-5.707-0.136-1.851-0.456-4.18-0.657-4.8-0.425-1.308-1.328-2.377-2.497-2.957-0.927-0.459-1.841-0.617-4.48-0.775-2.367-0.14-8.884-0.245-11.387-0.183zM22.267 6.771c3.452 0.151 4.723 0.292 5.301 0.587 0.377 0.192 0.791 0.624 0.991 1.035 0.196 0.403 0.333 1.119 0.535 2.804 0.312 2.619 0.312 6.096-0.001 8.831-0.097 0.856-0.317 2.263-0.395 2.524-0.147 0.499-0.672 1.087-1.199 1.341-0.387 0.187-0.923 0.292-2.021 0.399-3.687 0.356-12.129 0.421-17.184 0.133-3.044-0.173-3.888-0.371-4.519-1.060-0.388-0.424-0.497-0.703-0.649-1.659-0.293-1.811-0.46-3.899-0.46-6.026s0.167-4.215 0.489-6.251l-0.029 0.225c0.156-0.977 0.307-1.349 0.72-1.788 0.317-0.335 0.753-0.571 1.275-0.688 0.908-0.205 3.38-0.369 7.2-0.479 1.231-0.035 8.753 0.019 9.947 0.072zM12.437 10.031c-0.161 0.094-0.297 0.212-0.408 0.35l-0.002 0.003c-0.365 0.479-0.351 0.229-0.335 5.46l0.015 4.716 0.141 0.24c0.201 0.343 0.492 0.492 1.011 0.523 0.355 0.020 0.449 0.005 0.696-0.108 0.331-0.153 7.508-4.228 7.923-4.497 0.551-0.36 0.709-0.932 0.424-1.529-0.159-0.332-0.213-0.4-0.461-0.584-0.192-0.141-7.379-4.236-7.892-4.496-0.4-0.204-0.809-0.232-1.111-0.077zM16.389 14.763l1.589 0.903-1.795 1.020c-0.987 0.561-1.803 1.021-1.815 1.021-0.013 0-0.023-0.925-0.023-2.056v-2.055l0.227 0.132c0.124 0.073 0.941 0.539 1.816 1.035z"></path>
</symbol>
<symbol id="icon-logo-union" viewBox="0 0 72 32">
<path fill="#1b63f0" style="fill: var(--color1, #1b63f0)" d="M16 5.12h-0c0.002 0 0.004 0 0.006 0 6.009 0 10.88 4.871 10.88 10.88 0 6.007-4.868 10.877-10.875 10.88h-0.015c-6.008-0.001-10.878-4.872-10.878-10.88s4.871-10.88 10.88-10.88c0.001 0 0.001 0 0.002 0zM27.732 26.88c2.645-2.838 4.268-6.658 4.268-10.857 0-0.008 0-0.016-0-0.024v0.001c0-8.836-7.164-16-16-16s-16 7.164-16 16 7.164 16 16 16h38.828c8.836 0 16-7.164 16-16s-7.164-16-16-16c-8.837 0-16 7.164-16 16 0 4.201 1.619 8.025 4.268 10.88h-15.364zM54.832 26.88h-0.015c-6.006-0.004-10.873-4.873-10.873-10.88 0-6.009 4.871-10.88 10.88-10.88s10.88 4.871 10.88 10.88c0 6.007-4.867 10.876-10.873 10.88h-0z"></path>
</symbol>
<symbol id="icon-quick-link" viewBox="0 0 32 32">
<path fill="none" stroke="#fff" style="stroke: var(--color4, #fff)" stroke-linejoin="round" stroke-linecap="round" stroke-miterlimit="4" stroke-width="2.6667" d="M13.333 17.333c1.229 1.63 3.162 2.673 5.338 2.673 1.841 0 3.508-0.747 4.715-1.953l4-4c1.158-1.198 1.871-2.831 1.871-4.631 0-3.682-2.985-6.667-6.667-6.667-1.8 0-3.434 0.714-4.633 1.873l0.002-0.002-2.293 2.28"></path>
<path fill="none" stroke="#fff" style="stroke: var(--color4, #fff)" stroke-linejoin="round" stroke-linecap="round" stroke-miterlimit="4" stroke-width="2.6667" d="M18.667 14.667c-1.23-1.63-3.162-2.672-5.339-2.672-1.841 0-3.508 0.746-4.715 1.952l-4 4c-1.158 1.198-1.871 2.831-1.871 4.631 0 3.682 2.985 6.667 6.667 6.667 1.8 0 3.434-0.714 4.633-1.873l-0.002 0.002 2.28-2.28"></path>
</symbol>
<symbol id="icon-community-qa" viewBox="0 0 32 32">
<path fill="none" stroke="#fff" style="stroke: var(--color4, #fff)" stroke-linejoin="round" stroke-linecap="round" stroke-miterlimit="4" stroke-width="2.6667" d="M28 20c0 1.473-1.194 2.667-2.667 2.667v0h-16l-5.333 5.333v-21.333c0-1.473 1.194-2.667 2.667-2.667v0h18.667c1.473 0 2.667 1.194 2.667 2.667v0 13.333z"></path>
</symbol>
<symbol id="icon-review-and-rating" viewBox="0 0 32 32">
<path fill="none" stroke="#fff" style="stroke: var(--color4, #fff)" stroke-linejoin="round" stroke-linecap="round" stroke-miterlimit="4" stroke-width="2.6667" d="M26.667 9.333h-21.333c-1.473 0-2.667 1.194-2.667 2.667v0 13.333c0 1.473 1.194 2.667 2.667 2.667v0h21.333c1.473 0 2.667-1.194 2.667-2.667v0-13.333c0-1.473-1.194-2.667-2.667-2.667v0z"></path>
<path fill="none" stroke="#fff" style="stroke: var(--color4, #fff)" stroke-linejoin="round" stroke-linecap="round" stroke-miterlimit="4" stroke-width="2.6667" d="M21.333 28v-21.333c0-1.473-1.194-2.667-2.667-2.667v0h-5.333c-1.473 0-2.667 1.194-2.667 2.667v0 21.333"></path>
</symbol>
<symbol id="icon-tuition-and-fees" viewBox="0 0 32 32">
<path fill="none" stroke="#fff" style="stroke: var(--color4, #fff)" stroke-linejoin="round" stroke-linecap="round" stroke-miterlimit="4" stroke-width="2.6667" d="M16 25.333l9.333-9.333 4 4-9.333 9.333-4-4z"></path>
<path fill="none" stroke="#fff" style="stroke: var(--color4, #fff)" stroke-linejoin="round" stroke-linecap="round" stroke-miterlimit="4" stroke-width="2.6667" d="M24 17.333l-2-10-19.333-4.667 4.667 19.333 10 2 6.667-6.667zM2.667 2.667l10.115 10.115"></path>
<path fill="none" stroke="#fff" style="stroke: var(--color4, #fff)" stroke-linejoin="round" stroke-linecap="round" stroke-miterlimit="4" stroke-width="2.6667" d="M14.667 17.333c1.473 0 2.667-1.194 2.667-2.667s-1.194-2.667-2.667-2.667v0c-1.473 0-2.667 1.194-2.667 2.667s1.194 2.667 2.667 2.667v0z"></path>
</symbol>
<symbol id="icon-university-facilities" viewBox="0 0 32 32">
<path fill="none" stroke="#fff" style="stroke: var(--color4, #fff)" stroke-linejoin="round" stroke-linecap="round" stroke-miterlimit="4" stroke-width="2.6667" d="M2.667 4h8c2.946 0 5.333 2.388 5.333 5.333v0 18.667c0-2.209-1.791-4-4-4v0h-9.333v-20zM29.333 4h-8c-2.946 0-5.333 2.388-5.333 5.333v0 18.667c0-2.209 1.791-4 4-4v0h9.333v-20z"></path>
</symbol>
<symbol id="icon-calendar" viewBox="0 0 32 32">
<path fill="none" stroke="#838383" style="stroke: var(--color5, #838383)" stroke-linejoin="round" stroke-linecap="round" stroke-miterlimit="4" stroke-width="2.4" d="M25.333 5.333h-18.667c-1.473 0-2.667 1.194-2.667 2.667v18.667c0 1.473 1.194 2.667 2.667 2.667h18.667c1.473 0 2.667-1.194 2.667-2.667v-18.667c0-1.473-1.194-2.667-2.667-2.667z"></path>
<path fill="none" stroke="#838383" style="stroke: var(--color5, #838383)" stroke-linejoin="round" stroke-linecap="round" stroke-miterlimit="4" stroke-width="2.4" d="M21.333 2.667v5.333"></path>
<path fill="none" stroke="#838383" style="stroke: var(--color5, #838383)" stroke-linejoin="round" stroke-linecap="round" stroke-miterlimit="4" stroke-width="2.4" d="M10.667 2.667v5.333"></path>
<path fill="none" stroke="#838383" style="stroke: var(--color5, #838383)" stroke-linejoin="round" stroke-linecap="round" stroke-miterlimit="4" stroke-width="2.4" d="M4 13.333h24"></path>
</symbol>
<symbol id="icon-clock" viewBox="0 0 32 32">
<path fill="none" stroke="#838383" style="stroke: var(--color5, #838383)" stroke-linejoin="round" stroke-linecap="round" stroke-miterlimit="4" stroke-width="2.4" d="M16 29.333c7.364 0 13.333-5.969 13.333-13.333s-5.97-13.333-13.333-13.333c-7.364 0-13.333 5.97-13.333 13.333s5.97 13.333 13.333 13.333z"></path>
<path fill="none" stroke="#838383" style="stroke: var(--color5, #838383)" stroke-linejoin="round" stroke-linecap="round" stroke-miterlimit="4" stroke-width="2.4" d="M16 8v8l5.333 2.667"></path>
</symbol>
<symbol id="icon-map" viewBox="0 0 32 32">
<path fill="none" stroke="#838383" style="stroke: var(--color5, #838383)" stroke-linejoin="round" stroke-linecap="round" stroke-miterlimit="4" stroke-width="2.4" d="M28 13.333c0 9.333-12 17.333-12 17.333s-12-8-12-17.333c0-3.183 1.264-6.235 3.515-8.485s5.303-3.515 8.485-3.515c3.183 0 6.235 1.264 8.485 3.515s3.515 5.303 3.515 8.485z"></path>
<path fill="none" stroke="#838383" style="stroke: var(--color5, #838383)" stroke-linejoin="round" stroke-linecap="round" stroke-miterlimit="4" stroke-width="2.4" d="M16 17.333c2.209 0 4-1.791 4-4s-1.791-4-4-4c-2.209 0-4 1.791-4 4s1.791 4 4 4z"></path>
</symbol>
<symbol id="icon-affordability" viewBox="0 0 26 32">
<path fill="#1b63f0" style="fill: var(--color1, #1b63f0)" d="M2.882 31.42h22.798c0-0.962-4.48-1.759-10.221-1.858v-2.024h0.1c5.442-0.664 9.591-5.31 9.591-10.852 0-3.086-1.327-6.040-3.617-8.097-0.265-0.232-0.564-0.465-0.83-0.697l1.427-2.588c0.531-0.962 0.166-2.157-0.796-2.688l-3.252-1.792c-0.962-0.531-2.157-0.166-2.688 0.796l-6.372 11.714c-0.531 0.962-0.166 2.157 0.796 2.688l3.252 1.792c0.281 0.126 0.608 0.199 0.953 0.199 0.003 0 0.007 0 0.010-0h-0.001c0.199 0 0.365-0.033 0.564-0.066 0.498-0.133 0.929-0.498 1.161-0.962l4.049-7.433c0.166 0.133 0.332 0.265 0.498 0.431 1.892 1.726 2.987 4.181 2.987 6.737 0 4.58-3.451 8.462-7.998 8.993-0.796 0.1-1.593 0.066-2.389-0.033-2.553-0.373-4.718-1.785-6.086-3.786l-0.020-0.030h8.695c0.498 0 0.929-0.398 0.929-0.929s-0.398-0.929-0.896-0.929h-14.203c-0.498 0-0.929 0.398-0.929 0.929s0.398 0.929 0.929 0.929h3.352c1.623 2.985 4.517 5.102 7.936 5.634l0.061 0.008h0.133v2.091c-5.608 0.066-9.922 0.863-9.922 1.825zM14.165 16.122c-0.033 0.033-0.066 0.066-0.1 0.066h-0.1l-3.252-1.792c-0.066-0.033-0.1-0.133-0.066-0.199l6.338-11.648c0.033-0.066 0.133-0.1 0.199-0.066l3.252 1.792c0.066 0.033 0.1 0.133 0.066 0.199l-6.338 11.648z"></path>
</symbol>
<symbol id="icon-certificate" viewBox="0 0 32 32">
<path fill="#1b63f0" style="fill: var(--color1, #1b63f0)" d="M30.212 18.174h-3.717v-13.905c0-2.157-1.759-3.949-3.916-3.949h-16.493c-3.218 0-5.873 2.622-5.873 5.874v2.19c0.004 0.933 0.759 1.688 1.692 1.692h3.253v15.166c0 1.759 1.427 3.219 3.219 3.219h3.949v2.124c0 0.398 0.232 0.796 0.597 0.962 0.166 0.1 0.332 0.133 0.531 0.133s0.431-0.066 0.597-0.199l2.323-1.56 2.323 1.56c0.332 0.232 0.763 0.232 1.128 0.066 0.365-0.199 0.597-0.564 0.597-0.962v-2.157c0.066 0.033 0.166 0.033 0.232 0.033h7.666c0.133 0 0.232 0 0.332-0.033h0.066c0.066 0 0.166-0.033 0.265-0.033h0.066c0.033 0 0.066 0 0.066-0.033 0.066 0 0.1-0.033 0.166-0.033 0.033 0 0.1-0.033 0.133-0.033s0.066 0 0.066-0.033c0.1-0.033 0.199-0.066 0.265-0.1 0.033 0 0.066-0.033 0.066-0.033 0.033 0 0.033-0.033 0.066-0.033 0.1-0.033 0.166-0.1 0.265-0.133 0.066-0.033 0.166-0.1 0.232-0.166 0 0 0.033 0 0.033-0.033l0.066-0.066c0.066-0.066 0.133-0.1 0.199-0.166 0.1-0.1 0.232-0.199 0.299-0.332 0.066-0.066 0.166-0.199 0.232-0.332 0-0.033 0.033-0.033 0.033-0.066s0.033-0.033 0.033-0.066 0.033-0.033 0.033-0.066c0.033-0.066 0.066-0.1 0.1-0.166l0.1-0.199c0-0.033 0.033-0.066 0.033-0.1 0.066-0.199 0.133-0.398 0.166-0.597 0.033-0.232 0.066-0.465 0.066-0.73v-5.011c0.133-0.929-0.631-1.692-1.56-1.692zM2.039 6.161c0-2.223 1.825-4.049 4.049-4.049h12.776c-0.457 0.655-0.73 1.468-0.73 2.344 0 0.004 0 0.008 0 0.013v-0.001 3.717h-16.095v-2.024zM16.341 24.047c-1.96-0.002-3.548-1.591-3.551-3.551v-0c0-1.958 1.593-3.518 3.551-3.518 1.96 0.002 3.548 1.591 3.551 3.551v0c0 1.958-1.593 3.518-3.551 3.518zM16.341 27.665l-2.223 1.46v-3.717c0.664 0.299 1.427 0.498 2.223 0.498s1.527-0.166 2.223-0.498v3.75l-2.223-1.493zM20.389 26.603v-2.555c0.83-0.929 1.327-2.157 1.327-3.518 0-2.953-2.389-5.376-5.376-5.376-2.953 0-5.376 2.389-5.376 5.376 0 1.327 0.498 2.555 1.327 3.518v2.522h-3.948c-0.768-0.005-1.389-0.626-1.394-1.393v-15.166h11.283c0.933-0.004 1.688-0.759 1.692-1.692v-3.817c0-1.228 0.962-2.29 2.19-2.356h0.431c1.161 0 2.124 0.962 2.124 2.124v20.542c0 0.631 0.166 1.261 0.465 1.792h-4.513c-0.1-0.033-0.166-0.033-0.232 0zM30.013 25.143c-0.033 0.1-0.066 0.232-0.1 0.332-0.033 0.066-0.066 0.1-0.066 0.166l-0.066 0.1c-0.033 0.033-0.066 0.1-0.1 0.133l-0.033 0.033c-0.033 0.033-0.066 0.1-0.133 0.133-0.037 0.040-0.081 0.074-0.13 0.098l-0.003 0.001-0.033 0.033c-0.1 0.066-0.199 0.133-0.299 0.166-0.033 0.033-0.066 0.033-0.1 0.033s-0.066 0.033-0.1 0.033l-0.066 0.033c-0.033 0-0.1 0.033-0.133 0.033h-0.033c-0.033 0-0.1 0.033-0.133 0.033h-0.232c-0.002 0-0.005 0-0.008 0-0.985 0-1.784-0.799-1.784-1.784 0-0.003 0-0.005 0-0.008v0-4.712h3.551s0.033 5.044 0 5.144z"></path>
</symbol>
<symbol id="icon-life-programs" viewBox="0 0 24 32">
<path fill="#1b63f0" style="fill: var(--color1, #1b63f0)" d="M23.399 26.005l-3.717-8.23c1.261-1.161 2.257-2.622 2.92-4.281 0.166-0.465-0.066-0.996-0.531-1.195s-0.996 0.066-1.195 0.531c-0.486 1.236-1.172 2.295-2.028 3.189l0.003-0.004-2.522-5.608c0.398-0.73 0.597-1.527 0.597-2.389 0-2.456-1.726-4.48-4.015-4.978v-1.593c0-0.564-0.465-1.029-1.029-1.029s-1.029 0.465-1.029 1.029v1.593c-2.29 0.498-4.015 2.522-4.015 4.978 0 0.863 0.232 1.692 0.597 2.389l-2.522 5.608c-0.863-0.896-1.527-1.958-2.024-3.186-0.199-0.465-0.697-0.697-1.195-0.531-0.465 0.199-0.697 0.697-0.531 1.195 0.666 1.688 1.66 3.119 2.912 4.274l0.008 0.007-3.717 8.23-0.133 4.447c0 0.431 0.232 0.83 0.631 1.029 0.129 0.063 0.28 0.099 0.44 0.099 0.282 0 0.537-0.114 0.722-0.299v0l3.219-3.053 3.518-7.799c0.996 0.265 2.024 0.431 3.086 0.431s2.091-0.166 3.086-0.431l3.518 7.799 3.219 3.053c0.185 0.184 0.44 0.299 0.722 0.299 0.16 0 0.311-0.037 0.446-0.102l-0.006 0.003c0.375-0.158 0.634-0.522 0.634-0.947 0-0.029-0.001-0.057-0.003-0.085l0 0.004-0.066-4.447zM10.225 12.798l-2.389 5.31c-0.531-0.232-1.029-0.531-1.527-0.863l2.389-5.276c0.436 0.344 0.942 0.625 1.49 0.818l0.037 0.011zM15.070 11.968l2.389 5.276c-0.465 0.332-0.996 0.631-1.527 0.863l-2.389-5.31c0.584-0.204 1.090-0.485 1.538-0.838l-0.011 0.008zM11.884 4.767c1.795 0.003 3.249 1.457 3.252 3.252v0c-0.003 1.795-1.457 3.249-3.252 3.252h-0c-1.795-0.003-3.249-1.457-3.252-3.252v-0c0.003-1.795 1.457-3.249 3.252-3.252h0zM3.787 27.134l-1.659 1.56 0.066-2.257 3.385-7.5c0.498 0.332 0.996 0.597 1.527 0.83l-3.319 7.367zM11.884 19.003c-0.796 0-1.56-0.1-2.323-0.265l2.323-5.144 2.323 5.144c-0.763 0.166-1.527 0.265-2.323 0.265zM19.981 27.134l-3.319-7.334c0.531-0.232 1.029-0.531 1.527-0.83l3.385 7.467 0.066 2.257-1.659-1.56z"></path>
</symbol>
<symbol id="icon-social" viewBox="0 0 23 32">
<path fill="#1b63f0" style="fill: var(--color1, #1b63f0)" d="M4.008 2.112h17.522c0.498 0 0.929-0.398 0.929-0.929s-0.431-0.896-0.929-0.896h-17.522c-2.024 0-3.684 1.493-3.916 3.451-0.033 0.066-0.033 0.166-0.033 0.265v24.823c0.001 1.594 1.293 2.886 2.887 2.887h17.953c0.664 0 1.228-0.564 1.228-1.228v-22.865c0-0.664-0.564-1.228-1.228-1.228h-16.891c-1.161 0-2.157-0.996-2.157-2.157s0.996-2.124 2.157-2.124zM4.008 8.218h16.294v21.67h-17.356c-0.004 0-0.009 0-0.013 0-0.579 0-1.049-0.47-1.049-1.049 0-0.005 0-0.009 0-0.014v0.001-21.239c0.591 0.395 1.318 0.631 2.1 0.631 0.008 0 0.017-0 0.025-0h-0.001z"></path>
<path fill="#1b63f0" style="fill: var(--color1, #1b63f0)" d="M15.457 26.138h-8.429c-0.498 0-0.929 0.398-0.929 0.929s0.398 0.929 0.929 0.929h8.396c0.498 0 0.929-0.398 0.929-0.929s-0.398-0.929-0.896-0.929zM6.165 14.092h10.121c0.365 0 0.664-0.299 0.664-0.664v-1.991c0-0.365-0.299-0.664-0.664-0.664h-10.121c-0.365 0-0.664 0.299-0.664 0.664v1.991c0 0.365 0.299 0.664 0.664 0.664z"></path>
</symbol>
<symbol id="icon-close" viewBox="0 0 14 14" fill="none" xmlns="http://www.w3.org/2000/svg">
<path fill-rule="evenodd" clip-rule="evenodd" d="M13.7071 1.70711C14.0976 1.31658 14.0976 0.683417 13.7071 0.292893C13.3166 -0.0976312 12.6834 -0.0976312 12.2929 0.292893L7 5.58579L1.70711 0.292893C1.31658 -0.0976312 0.683417 -0.0976312 0.292893 0.292893C-0.0976312 0.683417 -0.0976312 1.31658 0.292893 1.70711L5.58579 7L0.292893 12.2929C-0.0976312 12.6834 -0.0976312 13.3166 0.292893 13.7071C0.683417 14.0976 1.31658 14.0976 1.70711 13.7071L7 8.41421L12.2929 13.7071C12.6834 14.0976 13.3166 14.0976 13.7071 13.7071C14.0976 13.3166 14.0976 12.6834 13.7071 12.2929L8.41421 7L13.7071 1.70711Z" fill="#1B63F0"/>
</symbol>
</defs>
</svg>
